<svg width="50" height="50" viewBox="0 0 50 50" fill="none" xmlns="http://www.w3.org/2000/svg">
<path fill-rule="evenodd" clip-rule="evenodd" d="M13.8523 25.2885C13.9154 25.8893 14.176 26.4732 14.6342 26.9337L31.9502 44.3373C33.0128 45.4053 34.7356 45.4053 35.7982 44.3373C36.8608 43.2693 36.8608 41.5378 35.7982 40.4699L20.4062 25L35.7982 9.53014C36.8608 8.46217 36.8608 6.73065 35.7982 5.66268C34.7356 4.59471 33.0128 4.59471 31.9502 5.66268L14.6342 23.0663C14.176 23.5268 13.9154 24.1107 13.8523 24.7115C13.8322 24.9033 13.8322 25.0967 13.8523 25.2885ZM27.2471 25L39.2187 12.9679C42.1704 10.0013 42.1704 5.19152 39.2187 2.22494C36.267 -0.741648 31.4814 -0.741648 28.5298 2.22494L11.2138 19.6285C8.26209 22.5951 8.26209 27.4049 11.2137 30.3715L28.5298 47.7751C31.4814 50.7416 36.267 50.7416 39.2187 47.7751C42.1703 44.8085 42.1703 39.9987 39.2187 37.0321L27.2471 25Z" fill="#161616"/>
</svg>
