<svg width="50" height="50" viewBox="0 0 50 50" fill="none" xmlns="http://www.w3.org/2000/svg">
<rect width="50" height="50" fill="white"/>
<path d="M13.9378 47.9261C13.9418 47.9299 13.948 47.9351 13.957 47.9413C13.9872 47.9621 14.0364 47.9841 14.0997 47.9943C14.1735 47.9833 14.2469 47.9705 14.3198 47.9558C14.55 47.8913 14.779 47.8192 15.0496 47.7339C15.0782 47.7249 15.1073 47.7157 15.1369 47.7064C19.9438 46.1736 24.746 44.6355 29.5434 43.0921C34.8494 41.3841 40.1554 39.6732 45.4615 37.9594L45.4653 37.9582C46.1078 37.7521 46.7453 37.5408 47.3935 37.3259C47.5801 37.264 47.7676 37.2019 47.9564 37.1395C47.9461 37.1123 47.9344 37.0851 47.9214 37.0579L47.9094 37.0327L47.8981 37.0072C47.1079 35.2284 46.3102 33.4524 45.5051 31.6794C43.5948 27.4767 41.6829 23.274 39.7695 19.0714L39.7693 19.071C37.9264 15.0211 36.0813 10.9722 34.2341 6.9242L34.234 6.92404C33.812 5.99899 33.3994 5.10616 32.9846 4.20853C32.6497 3.48357 32.3132 2.75546 31.9692 2.00473C31.902 1.99542 31.8306 1.9997 31.7648 2.01886L31.7612 2.01993C31.2845 2.1578 30.8071 2.30765 30.3044 2.46558L13.9378 47.9261ZM13.9378 47.9261L13.9366 47.9222L13.9279 47.8953C13.6598 47.0708 13.3876 46.2486 13.1173 45.4323L13.1165 45.4299C12.8454 44.6111 12.5763 43.7983 12.3119 42.9849C10.7633 38.2205 9.21681 33.4547 7.67248 28.6875L13.9378 47.9261ZM2.1597 11.6176L2.16095 11.6214C3.99758 17.3106 5.83474 22.9992 7.67244 28.6873L2.1597 11.6176ZM2.1597 11.6176C2.14446 11.5707 2.13126 11.5254 2.10839 11.4468C2.10428 11.4327 2.09984 11.4175 2.09503 11.401C2.10362 11.3979 2.11256 11.3949 2.12186 11.392L2.13639 11.3876M2.1597 11.6176L2.13639 11.3876M2.13639 11.3876L2.15085 11.383M2.13639 11.3876L2.15085 11.383M2.15085 11.383C3.88626 10.824 5.64417 10.2607 7.38304 9.70597M2.15085 11.383L7.38304 9.70597M7.38304 9.70597C11.3078 8.4596 15.2331 7.21611 19.159 5.97549L7.38304 9.70597ZM19.1599 5.9752C22.8741 4.80345 26.5888 3.63361 30.3041 2.46569L19.1599 5.9752Z" stroke="black" stroke-width="4"/>
</svg>
