<svg width="50" height="50" viewBox="0 0 50 50" fill="none" xmlns="http://www.w3.org/2000/svg">
<rect width="50" height="50" fill="white"/>
<path d="M14.1859 50C13.6936 50.0026 13.2143 49.858 12.8233 49.589C12.4323 49.3199 12.1518 48.9417 12.0259 48.5137C11.4931 46.875 10.9427 45.242 10.4099 43.6033C8.86104 38.8382 7.31434 34.0717 5.76978 29.3037C3.93188 23.6149 2.09451 17.9256 0.25767 12.2359C0.196869 12.0489 0.150469 11.8589 0.0848673 11.6748C-0.108737 11.1252 0.0400661 10.6403 0.417674 10.1986C0.704241 9.86504 1.09382 9.61482 1.5377 9.47926C3.27533 8.91959 5.03537 8.35561 6.7762 7.80025C10.7027 6.55334 14.6297 5.30931 18.5572 4.06816C22.2725 2.89606 25.9883 1.72589 29.7047 0.557629C30.2039 0.400806 30.7031 0.243984 31.2055 0.0986708C31.7034 -0.0463722 32.2419 -0.031113 32.7287 0.141832C32.9439 0.208367 33.1409 0.315421 33.3065 0.455847C33.472 0.596273 33.6023 0.76684 33.6887 0.95616C34.4728 2.6697 35.2712 4.37893 36.0536 6.0939C37.9011 10.1425 39.7465 14.1921 41.5897 18.2426C43.5033 22.4457 45.4154 26.6487 47.3258 30.8518C48.1333 32.63 48.9333 34.4112 49.7259 36.1952C49.8575 36.4707 49.9464 36.7612 49.9899 37.0585C50.1003 38.0527 49.2874 38.8051 48.5978 39.0339C47.7578 39.3116 46.9194 39.5921 46.0762 39.8626C40.7694 41.5766 35.4626 43.2878 30.1559 44.996C25.3558 46.5403 20.5509 48.0792 15.7412 49.6129C15.4212 49.7137 15.1108 49.8129 14.7908 49.9007C14.5912 49.9433 14.3894 49.9764 14.1859 50Z" fill="#161616"/>
</svg>
