<svg width="50" height="50" viewBox="0 0 50 50" fill="none" xmlns="http://www.w3.org/2000/svg">
<g clip-path="url(#clip0_286_2697)">
<path d="M30.86 4.38996L31.16 5.02996C31.58 5.93996 32 6.83996 32.41 7.74996C34.2633 11.8033 36.1267 15.8533 38 19.9L43.73 32.51C44.25 33.65 44.73 34.79 45.28 35.93L44.9 36.06L28.93 41.19L15.27 45.57C15.18 45.31 15.1 45.06 15.02 44.8L14.21 42.37C12.67 37.6033 11.1267 32.8366 9.57999 28.07L4.57999 12.69L7.99999 11.61L19.76 7.87996L30.86 4.38996ZM31.9 -4.42124e-05C31.6662 -0.00196753 31.4336 0.0317531 31.21 0.0999558C30.7 0.239956 30.21 0.399956 29.7 0.559956L18.56 4.06996L6.77999 7.79996L1.53999 9.47996C1.10433 9.60537 0.714957 9.85568 0.419991 10.2C0.230916 10.3883 0.0987338 10.6261 0.0385987 10.8861C-0.0215365 11.1461 -0.00719101 11.4177 0.0799906 11.67C0.149991 11.86 0.199991 12.05 0.259991 12.24C2.08666 17.9333 3.92332 23.62 5.76999 29.3C7.30999 34.0666 8.85666 38.8333 10.41 43.6C10.94 45.24 11.49 46.87 12.03 48.51C12.1615 48.95 12.4405 49.3313 12.82 49.59C13.2185 49.8594 13.689 50.0023 14.17 50C14.37 50 14.57 49.94 14.77 49.9L15.77 49.61L30.16 45L46.08 39.86L48.6 39C49.0196 38.8661 49.3832 38.5976 49.6345 38.2359C49.8859 37.8743 50.0108 37.4398 49.99 37C49.9492 36.7014 49.8614 36.4111 49.73 36.14L47.33 30.79C45.4233 26.59 43.51 22.3866 41.59 18.18C39.75 14.1333 37.9033 10.0833 36.05 6.02996C35.27 4.37996 34.47 2.66996 33.69 0.999956C33.5988 0.809106 33.4695 0.638947 33.31 0.499956C33.1377 0.358895 32.9412 0.250452 32.73 0.179956C32.4649 0.0753857 32.1846 0.0145932 31.9 -4.42124e-05Z" fill="black"/>
</g>
<defs>
<clipPath id="clip0_286_2697">
<rect width="50" height="50" fill="white"/>
</clipPath>
</defs>
</svg>
