<svg width="52" height="52" viewBox="0 0 52 52" fill="none" xmlns="http://www.w3.org/2000/svg">
<rect width="50" height="50" transform="translate(1 1)" fill="white"/>
<path fill-rule="evenodd" clip-rule="evenodd" d="M29.915 3.83561C28.787 -0.097873 23.213 -0.0978724 22.085 3.83561C21.2936 6.59535 17.9718 7.69198 15.6929 5.94582L15.2902 5.6372C12.1203 3.20834 7.76299 6.48968 9.22173 10.2072C10.2637 12.8626 8.22817 15.7116 5.37831 15.5864L5.05288 15.5721C1.08212 15.3977 -0.548125 20.5996 2.81196 22.7226C5.22 24.244 5.22 27.7559 2.81197 29.2774C-0.548124 31.4004 1.08212 36.6023 5.05288 36.4278L5.37831 36.4136C8.22817 36.2883 10.2637 39.1373 9.22173 41.7928C7.76299 45.5103 12.1203 48.7916 15.2902 46.3628L15.6929 46.0542C17.9718 44.308 21.2936 45.4046 22.085 48.1644C23.213 52.0979 28.787 52.0979 29.915 48.1644C30.7064 45.4046 34.0282 44.308 36.3071 46.0542L36.7099 46.3628C39.8797 48.7916 44.237 45.5103 42.7783 41.7928C41.7363 39.1373 43.7718 36.2883 46.6217 36.4136L46.9471 36.4278C50.9179 36.6023 52.5481 31.4004 49.188 29.2774C46.78 27.7559 46.78 24.244 49.188 22.7226C52.5481 20.5996 50.9179 15.3977 46.9471 15.5721L46.6217 15.5864C43.7718 15.7116 41.7363 12.8626 42.7783 10.2072C44.237 6.48968 39.8797 3.20833 36.7099 5.63719L36.3071 5.94581C34.0282 7.69197 30.7064 6.59535 29.915 3.83561ZM26.4554 32.9887C30.7315 32.9887 34.1979 29.6642 34.1979 25.5632C34.1979 21.4623 30.7315 18.1378 26.4554 18.1378C22.1794 18.1378 18.7129 21.4623 18.7129 25.5632C18.7129 29.6642 22.1794 32.9887 26.4554 32.9887Z" fill="#161616"/>
</svg>
