<svg width="52" height="52" viewBox="0 0 52 52" fill="none" xmlns="http://www.w3.org/2000/svg">
<rect width="50" height="50" transform="translate(1 1)" fill="white"/>
<mask id="path-1-inside-1_270_2664" fill="white">
<path fill-rule="evenodd" clip-rule="evenodd" d="M29.915 3.83561C28.787 -0.097873 23.213 -0.0978726 22.085 3.83561C21.2936 6.59535 17.9718 7.69198 15.6929 5.94582L15.2902 5.6372C12.1203 3.20834 7.76299 6.48968 9.22173 10.2072C10.2637 12.8626 8.22817 15.7116 5.37831 15.5864L5.05288 15.5721C1.08212 15.3977 -0.548124 20.5996 2.81196 22.7226C5.22 24.244 5.22 27.7559 2.81197 29.2774C-0.548124 31.4004 1.08212 36.6023 5.05288 36.4279L5.37831 36.4136C8.22817 36.2883 10.2637 39.1373 9.22173 41.7928C7.76299 45.5103 12.1203 48.7916 15.2902 46.3628L15.6929 46.0542C17.9718 44.308 21.2936 45.4046 22.085 48.1644C23.213 52.0979 28.787 52.0979 29.915 48.1644C30.7064 45.4046 34.0282 44.308 36.3071 46.0542L36.7098 46.3628C39.8797 48.7916 44.237 45.5103 42.7783 41.7928C41.7363 39.1373 43.7718 36.2883 46.6217 36.4136L46.9471 36.4279C50.9179 36.6023 52.5481 31.4004 49.188 29.2774C46.78 27.7559 46.78 24.244 49.188 22.7226C52.5481 20.5996 50.9179 15.3977 46.9471 15.5721L46.6217 15.5864C43.7718 15.7116 41.7363 12.8626 42.7783 10.2072C44.237 6.48968 39.8797 3.20833 36.7099 5.63719L36.3071 5.94581C34.0282 7.69197 30.7064 6.59535 29.915 3.83561ZM26.4554 32.9887C30.7315 32.9887 34.1979 29.6642 34.1979 25.5632C34.1979 21.4623 30.7315 18.1378 26.4554 18.1378C22.1794 18.1378 18.7129 21.4623 18.7129 25.5632C18.7129 29.6642 22.1794 32.9887 26.4554 32.9887Z"/>
</mask>
<path d="M22.085 3.83561L18.24 2.73301L18.24 2.73301L22.085 3.83561ZM29.915 3.83561L33.76 2.73301L33.76 2.73301L29.915 3.83561ZM15.6929 5.94582L13.2601 9.12091L13.2601 9.12092L15.6929 5.94582ZM15.2902 5.6372L17.723 2.4621L17.723 2.4621L15.2902 5.6372ZM9.22173 10.2072L5.49814 11.6683L5.49814 11.6683L9.22173 10.2072ZM5.37831 15.5864L5.55388 11.5903L5.55387 11.5903L5.37831 15.5864ZM5.05288 15.5721L4.87731 19.5683L4.87731 19.5683L5.05288 15.5721ZM2.81196 22.7226L0.675389 26.1042L0.675391 26.1042L2.81196 22.7226ZM2.81197 29.2774L0.675391 25.8958L0.675391 25.8958L2.81197 29.2774ZM5.05288 36.4279L5.22844 40.424L5.05288 36.4279ZM5.37831 36.4136L5.55388 40.4097L5.55388 40.4097L5.37831 36.4136ZM9.22173 41.7928L12.9453 43.254L12.9453 43.254L9.22173 41.7928ZM15.2902 46.3628L17.723 49.5379L17.723 49.5379L15.2902 46.3628ZM15.6929 46.0542L13.2601 42.8791L13.2601 42.8791L15.6929 46.0542ZM22.085 48.1644L18.24 49.267L18.24 49.267L22.085 48.1644ZM29.915 48.1644L26.07 47.0618L26.07 47.0618L29.915 48.1644ZM36.3071 46.0542L38.7399 42.8791L38.7399 42.8791L36.3071 46.0542ZM36.7098 46.3628L34.277 49.5379L34.277 49.5379L36.7098 46.3628ZM42.7783 41.7928L46.5019 40.3317L46.5019 40.3317L42.7783 41.7928ZM46.6217 36.4136L46.7973 32.4174L46.7973 32.4174L46.6217 36.4136ZM46.9471 36.4279L46.7716 40.424L46.7716 40.424L46.9471 36.4279ZM49.188 29.2774L51.3246 25.8958L51.3246 25.8958L49.188 29.2774ZM49.188 22.7226L47.0515 19.341L47.0515 19.341L49.188 22.7226ZM46.9471 15.5721L46.7716 11.576L46.7716 11.576L46.9471 15.5721ZM46.6217 15.5864L46.7973 19.5826L46.7973 19.5826L46.6217 15.5864ZM42.7783 10.2072L46.5019 11.6683L46.5019 11.6683L42.7783 10.2072ZM36.7099 5.63719L34.277 2.4621L34.277 2.4621L36.7099 5.63719ZM36.3071 5.94581L38.7399 9.12091L38.7399 9.12091L36.3071 5.94581ZM25.9301 4.93821C25.9493 4.87109 25.965 4.85446 25.9575 4.865C25.9508 4.87439 25.9392 4.88616 25.9275 4.89441C25.9177 4.90127 25.9175 4.89899 25.9317 4.89465C25.9468 4.89003 25.9707 4.8855 26 4.8855C26.0294 4.8855 26.0532 4.89003 26.0683 4.89465C26.0825 4.89899 26.0823 4.90127 26.0726 4.89441C26.0608 4.88616 26.0492 4.87439 26.0425 4.865C26.035 4.85446 26.0507 4.87109 26.07 4.93821L33.76 2.73301C31.5243 -5.06368 20.4758 -5.06367 18.24 2.73301L25.9301 4.93821ZM13.2601 9.12092C17.7772 12.582 24.3614 10.4084 25.9301 4.93821L18.24 2.73301C18.2341 2.75367 18.2292 2.76164 18.229 2.76196C18.2285 2.7628 18.2286 2.76269 18.2282 2.76303C18.2264 2.76484 18.2153 2.77465 18.1929 2.78206C18.1704 2.78946 18.1556 2.78822 18.1531 2.78783C18.1526 2.78776 18.1527 2.78782 18.1518 2.78744C18.1515 2.78729 18.1428 2.78379 18.1258 2.77072L13.2601 9.12092ZM12.8573 8.81229L13.2601 9.12091L18.1258 2.77072L17.723 2.4621L12.8573 8.81229ZM12.9453 8.74602C12.9345 8.71841 12.9311 8.70337 12.9305 8.70043C12.9299 8.69753 12.9312 8.70259 12.9316 8.71441C12.9324 8.74097 12.9281 8.772 12.9194 8.79931C12.9115 8.82425 12.9035 8.8348 12.9045 8.83346C12.9061 8.83133 12.9132 8.82259 12.9265 8.81258C12.9398 8.80258 12.9501 8.79812 12.9526 8.79723C12.9542 8.79667 12.9418 8.80136 12.9157 8.80212C12.887 8.80295 12.856 8.7985 12.8307 8.79034C12.8195 8.78671 12.815 8.7841 12.8176 8.78549C12.8202 8.78689 12.8338 8.79426 12.8573 8.8123L17.723 2.4621C11.3373 -2.43084 2.55951 4.17941 5.49814 11.6683L12.9453 8.74602ZM5.20274 19.5826C10.9438 19.8348 15.0444 14.0955 12.9453 8.74602L5.49814 11.6683C5.50239 11.6791 5.50058 11.6779 5.4993 11.6669C5.49809 11.6565 5.49824 11.645 5.49971 11.6344C5.50239 11.6151 5.50746 11.6105 5.50485 11.6142C5.50224 11.6178 5.50494 11.6115 5.52235 11.6027C5.53184 11.5979 5.54268 11.5941 5.5529 11.5918C5.56377 11.5895 5.56549 11.5908 5.55388 11.5903L5.20274 19.5826ZM4.87731 19.5683L5.20275 19.5826L5.55387 11.5903L5.22844 11.576L4.87731 19.5683ZM4.94854 19.341C4.90668 19.3146 4.91195 19.3094 4.93434 19.3381C4.95585 19.3656 4.97453 19.4007 4.98602 19.4357C5.00667 19.4984 4.99097 19.5118 5.0003 19.482C5.00963 19.4523 5.0149 19.4722 4.96212 19.5119C4.93274 19.5341 4.89737 19.5522 4.86397 19.5626C4.82921 19.5734 4.82784 19.5661 4.87731 19.5683L5.22844 11.576C-2.8393 11.2215 -6.15156 21.7907 0.675389 26.1042L4.94854 19.341ZM4.94854 32.659C9.84114 29.5677 9.84114 22.4323 4.94854 19.341L0.675391 26.1042C0.680957 26.1077 0.674353 26.1042 0.662649 26.0915C0.651415 26.0793 0.641276 26.065 0.633508 26.0503C0.618863 26.0228 0.617988 26.0054 0.617988 26C0.617988 25.9946 0.618863 25.9772 0.633509 25.9496C0.641276 25.935 0.651415 25.9206 0.66265 25.9085C0.674353 25.8958 0.680957 25.8923 0.675391 25.8958L4.94854 32.659ZM4.87731 32.4317C4.82784 32.4339 4.82922 32.4266 4.86398 32.4374C4.89737 32.4478 4.93274 32.4659 4.96212 32.488C5.01491 32.5278 5.00963 32.5477 5.0003 32.518C4.99097 32.4882 5.00667 32.5015 4.98602 32.5643C4.97453 32.5993 4.95585 32.6343 4.93434 32.6619C4.91195 32.6906 4.90668 32.6854 4.94854 32.659L0.675391 25.8958C-6.15158 30.2093 -2.83928 40.7784 5.22844 40.424L4.87731 32.4317ZM5.20275 32.4174L4.87731 32.4317L5.22844 40.424L5.55388 40.4097L5.20275 32.4174ZM12.9453 43.254C15.0444 37.9045 10.9438 32.1652 5.20275 32.4174L5.55388 40.4097C5.56549 40.4092 5.56377 40.4105 5.55291 40.4081C5.54268 40.4059 5.53184 40.402 5.52235 40.3972C5.50494 40.3884 5.50224 40.3822 5.50485 40.3858C5.50746 40.3895 5.50239 40.3849 5.49971 40.3656C5.49824 40.355 5.49809 40.3435 5.4993 40.3331C5.50058 40.3221 5.50239 40.3209 5.49814 40.3317L12.9453 43.254ZM12.8573 43.1877C12.8338 43.2057 12.8202 43.2131 12.8176 43.2145C12.815 43.2159 12.8195 43.2133 12.8307 43.2096C12.856 43.2015 12.887 43.197 12.9157 43.1979C12.9419 43.1986 12.9542 43.2033 12.9526 43.2027C12.9501 43.2019 12.9398 43.1974 12.9265 43.1874C12.9132 43.1774 12.906 43.1686 12.9045 43.1665C12.9035 43.1652 12.9115 43.1757 12.9194 43.2007C12.9281 43.228 12.9324 43.259 12.9316 43.2856C12.9312 43.2974 12.9299 43.3025 12.9305 43.2995C12.9311 43.2966 12.9345 43.2816 12.9453 43.254L5.49814 40.3317C2.55951 47.8206 11.3373 54.4308 17.723 49.5379L12.8573 43.1877ZM13.2601 42.8791L12.8573 43.1877L17.723 49.5379L18.1258 49.2293L13.2601 42.8791ZM25.9301 47.0618C24.3614 41.5916 17.7772 39.4179 13.2601 42.8791L18.1258 49.2293C18.1428 49.2162 18.1515 49.2127 18.1518 49.2125C18.1527 49.2122 18.1526 49.2122 18.1531 49.2121C18.1556 49.2118 18.1704 49.2105 18.1929 49.2179C18.2153 49.2253 18.2264 49.2351 18.2282 49.237C18.2286 49.2373 18.2285 49.2372 18.229 49.238C18.2292 49.2383 18.2341 49.2463 18.24 49.267L25.9301 47.0618ZM26.07 47.0618C26.0507 47.1289 26.035 47.1455 26.0425 47.135C26.0492 47.1256 26.0608 47.1138 26.0726 47.1056C26.0823 47.0987 26.0825 47.101 26.0683 47.1053C26.0532 47.11 26.0294 47.1145 26 47.1145C25.9707 47.1145 25.9468 47.11 25.9317 47.1053C25.9175 47.101 25.9177 47.0987 25.9275 47.1056C25.9392 47.1138 25.9508 47.1256 25.9575 47.135C25.965 47.1455 25.9493 47.1289 25.9301 47.0618L18.24 49.267C20.4758 57.0637 31.5243 57.0637 33.76 49.267L26.07 47.0618ZM38.7399 42.8791C34.2229 39.418 27.6386 41.5916 26.07 47.0618L33.76 49.267C33.7659 49.2463 33.7708 49.2383 33.771 49.238C33.7715 49.2372 33.7714 49.2373 33.7718 49.237C33.7736 49.2351 33.7847 49.2253 33.8072 49.2179C33.8296 49.2105 33.8444 49.2118 33.8469 49.2122C33.8474 49.2122 33.8473 49.2122 33.8482 49.2125C33.8485 49.2127 33.8572 49.2162 33.8742 49.2293L38.7399 42.8791ZM39.1427 43.1877L38.7399 42.8791L33.8742 49.2293L34.277 49.5379L39.1427 43.1877ZM39.0547 43.254C39.0655 43.2816 39.0689 43.2966 39.0695 43.2995C39.0701 43.3025 39.0688 43.2974 39.0685 43.2856C39.0676 43.259 39.0719 43.228 39.0806 43.2007C39.0886 43.1757 39.0965 43.1652 39.0955 43.1665C39.094 43.1686 39.0868 43.1774 39.0735 43.1874C39.0602 43.1974 39.0499 43.2019 39.0474 43.2028C39.0458 43.2033 39.0582 43.1986 39.0843 43.1979C39.113 43.197 39.144 43.2015 39.1693 43.2096C39.1805 43.2133 39.1851 43.2159 39.1824 43.2145C39.1798 43.2131 39.1662 43.2057 39.1427 43.1877L34.277 49.5379C40.6627 54.4308 49.4405 47.8206 46.5019 40.3317L39.0547 43.254ZM46.7973 32.4174C41.0562 32.1652 36.9556 37.9045 39.0547 43.254L46.5019 40.3317C46.4976 40.3209 46.4994 40.3221 46.5007 40.3331C46.5019 40.3435 46.5018 40.355 46.5003 40.3656C46.4976 40.3849 46.4926 40.3895 46.4952 40.3858C46.4978 40.3822 46.4951 40.3884 46.4777 40.3972C46.4682 40.402 46.4573 40.4059 46.4471 40.4081C46.4362 40.4105 46.4345 40.4092 46.4461 40.4097L46.7973 32.4174ZM47.1227 32.4317L46.7973 32.4174L46.4461 40.4097L46.7716 40.424L47.1227 32.4317ZM47.0515 32.659C47.0933 32.6854 47.0881 32.6906 47.0657 32.6619C47.0442 32.6343 47.0255 32.5993 47.014 32.5643C46.9933 32.5015 47.009 32.4882 46.9997 32.518C46.9904 32.5477 46.9851 32.5278 47.0379 32.488C47.0673 32.4659 47.1026 32.4478 47.136 32.4374C47.1708 32.4266 47.1722 32.4339 47.1227 32.4317L46.7716 40.424C54.8393 40.7784 58.1516 30.2093 51.3246 25.8958L47.0515 32.659ZM47.0515 19.341C42.1589 22.4323 42.1589 29.5677 47.0515 32.659L51.3246 25.8958C51.3191 25.8923 51.3257 25.8958 51.3374 25.9085C51.3486 25.9206 51.3587 25.935 51.3665 25.9496C51.3811 25.9772 51.382 25.9946 51.382 26C51.382 26.0054 51.3811 26.0228 51.3665 26.0503C51.3587 26.065 51.3486 26.0793 51.3374 26.0915C51.3257 26.1042 51.3191 26.1077 51.3246 26.1042L47.0515 19.341ZM47.1227 19.5683C47.1722 19.5661 47.1708 19.5734 47.136 19.5626C47.1026 19.5522 47.0673 19.5341 47.0379 19.5119C46.9851 19.4722 46.9904 19.4523 46.9997 19.482C47.009 19.5118 46.9933 19.4984 47.014 19.4357C47.0255 19.4007 47.0442 19.3656 47.0657 19.3381C47.0881 19.3094 47.0933 19.3146 47.0515 19.341L51.3246 26.1042C58.1516 21.7907 54.8393 11.2215 46.7716 11.576L47.1227 19.5683ZM46.7973 19.5826L47.1227 19.5683L46.7716 11.576L46.4461 11.5903L46.7973 19.5826ZM39.0547 8.74602C36.9556 14.0955 41.0562 19.8348 46.7973 19.5826L46.4461 11.5903C46.4345 11.5908 46.4362 11.5895 46.4471 11.5918C46.4573 11.5941 46.4682 11.5979 46.4777 11.6027C46.4951 11.6115 46.4978 11.6178 46.4952 11.6142C46.4926 11.6105 46.4976 11.6151 46.5003 11.6344C46.5018 11.645 46.5019 11.6565 46.5007 11.6669C46.4994 11.6779 46.4976 11.6791 46.5019 11.6683L39.0547 8.74602ZM39.1427 8.81229C39.1662 8.79425 39.1798 8.78689 39.1824 8.78549C39.1851 8.7841 39.1805 8.7867 39.1693 8.79033C39.144 8.7985 39.113 8.80295 39.0843 8.80212C39.0582 8.80136 39.0458 8.79666 39.0474 8.79722C39.0499 8.79812 39.0602 8.80257 39.0735 8.81258C39.0868 8.82259 39.094 8.83133 39.0955 8.83346C39.0965 8.83479 39.0886 8.82425 39.0806 8.79931C39.0719 8.772 39.0676 8.74097 39.0685 8.71441C39.0688 8.70259 39.0701 8.69753 39.0695 8.70044C39.0689 8.70337 39.0655 8.71842 39.0547 8.74602L46.5019 11.6683C49.4405 4.17944 40.6628 -2.43086 34.277 2.4621L39.1427 8.81229ZM38.7399 9.12091L39.1427 8.81229L34.277 2.4621L33.8742 2.77072L38.7399 9.12091ZM26.07 4.93821C27.6386 10.4084 34.2228 12.582 38.7399 9.12091L33.8742 2.77072C33.8572 2.78378 33.8485 2.78729 33.8482 2.78743C33.8473 2.78781 33.8474 2.78776 33.8469 2.78783C33.8444 2.78822 33.8296 2.78946 33.8072 2.78206C33.7847 2.77465 33.7736 2.76483 33.7718 2.76302C33.7714 2.76269 33.7715 2.76279 33.771 2.76196C33.7708 2.76164 33.7659 2.75367 33.76 2.73301L26.07 4.93821ZM30.1979 25.5632C30.1979 27.2991 28.6816 28.9887 26.4554 28.9887V36.9887C32.7814 36.9887 38.1979 32.0293 38.1979 25.5632H30.1979ZM26.4554 22.1378C28.6816 22.1378 30.1979 23.8274 30.1979 25.5632H38.1979C38.1979 19.0971 32.7814 14.1378 26.4554 14.1378V22.1378ZM22.7129 25.5632C22.7129 23.8274 24.2292 22.1378 26.4554 22.1378V14.1378C20.1295 14.1378 14.7129 19.0971 14.7129 25.5632H22.7129ZM26.4554 28.9887C24.2292 28.9887 22.7129 27.2991 22.7129 25.5632H14.7129C14.7129 32.0293 20.1295 36.9887 26.4554 36.9887V28.9887Z" fill="black" mask="url(#path-1-inside-1_270_2664)"/>
</svg>
